<svg xmlns="http://www.w3.org/2000/svg" viewBox="0 0 800 371" role="img" aria-labelledby="title desc">
<title id="title">ARQ wordmark</title><desc id="desc">Canonical ARQ wordmark with an identical a and q bowl; the q adds only the descender.</desc><path fill="#0B6B50" d="M216 288 H144 A144 144 0 1 1 288 144 V280 Q288 288 280 288 H248 Q240 288 240 280 V144 A96 96 0 1 0 199.06 222.64 Q216 212 216 228 V288 Z"/><path fill="#0B6B50" d="M0 280 Q0 288 8 288 H40 Q48 288 48 280 V144 A96 96 0 0 1 144 48 H152 Q160 48 160 40 V8 Q160 0 152 0 H144 A144 144 0 0 0 0 144 V280 Z" transform="translate(320 0)"/><path fill="#0B6B50" d="M216 288 H144 A144 144 0 1 1 288 144 V280 Q288 288 280 288 H248 Q240 288 240 280 V144 A96 96 0 1 0 199.06 222.64 Q216 212 216 228 V288 Z" transform="translate(512 0)"/><path fill="#0B6B50" d="M240 280 H288 V363 Q288 371 280 371 H248 Q240 371 240 363 Z" transform="translate(512 0)"/></svg>